<?xml version="1.0" encoding="UTF-8"?>
<!DOCTYPE svg PUBLIC "-//W3C//DTD SVG 1.0//EN" "http://www.w3.org/TR/2001/REC-SVG-20010904/DTD/svg10.dtd">
<!-- Creator: CorelDRAW X7 -->
<svg xmlns="http://www.w3.org/2000/svg" xml:space="preserve" width="115px" height="74px" version="1.0" style="shape-rendering:geometricPrecision; text-rendering:geometricPrecision; image-rendering:optimizeQuality; fill-rule:evenodd; clip-rule:evenodd"
viewBox="0 0 253 162"
 xmlns:xlink="http://www.w3.org/1999/xlink">
 <defs>
  <style type="text/css">
   <![CDATA[
    .fil1 {fill:#97999B;fill-rule:nonzero}
    .fil2 {fill:#858789;fill-rule:nonzero}
    .fil0 {fill:#ED323E;fill-rule:nonzero}
   ]]>
  </style>
 </defs>
 <g id="Layer_x0020_1">
  <metadata id="CorelCorpID_0Corel-Layer"/>
  <g id="_1489461443536">
   <g>
    <path class="fil0" d="M23 125c0,2 1,4 2,4 2,1 4,2 4,5l0 6c0,4 -4,6 -11,6l-7 0c-7,0 -11,-2 -11,-6l0 -20 6 0 0 20c0,2 2,3 5,3l7 0c3,0 5,-1 5,-3l0 -6c0,-2 -1,-3 -3,-3 -2,0 -3,-2 -3,-6l6 0z"/>
    <path class="fil0" d="M37 132l0 8c0,2 1,3 4,3l8 0c3,0 4,-1 4,-3l0 -10c0,-2 -1,-3 -4,-3l-3 0c-5,0 -8,-2 -8,-7l6 0c0,3 1,4 2,4l3 0c7,0 10,2 10,6l0 10c0,4 -3,6 -10,6l-8 0c-7,0 -10,-2 -10,-6l0 -8 6 0z"/>
    <path class="fil0" d="M63 128c0,-4 3,-6 10,-6l2 0c3,0 6,1 9,2l0 -4 6 0 0 20c0,4 -4,6 -11,6l-7 0c-7,0 -11,-2 -11,-6l1 -5 6 0 -1 5c0,2 2,3 5,3l7 0c3,0 5,-1 5,-3l0 -11c0,-2 -3,-3 -9,-4l-2 0c-3,0 -4,1 -4,3l0 3 -6 0 0 -3z"/>
   </g>
   <path class="fil1" d="M115 125c0,2 0,4 1,4 3,1 4,2 4,5l0 6c0,4 -3,6 -10,6l-8 0c-7,0 -10,-2 -10,-6l0 -20 6 0 0 20c0,2 1,3 4,3l8 0c3,0 4,-1 4,-3l0 -6c0,-2 -1,-3 -3,-3 -1,0 -2,-2 -2,-6l6 0z"/>
   <path class="fil1" d="M122 127c0,-4 4,-6 11,-6l4 0 0 -2 5 0 0 2 4 0c7,0 11,2 11,6l0 13c0,4 -4,6 -11,6l-13 0c-7,0 -11,-2 -11,-6l0 -13zm15 -3l0 0 -4 0c-3,0 -5,1 -5,3l0 13c0,2 2,3 5,3l13 0c3,0 5,-1 5,-3l0 -13c0,-2 -2,-3 -5,-3l-4 0 0 9 -5 0 0 -9z"/>
   <path class="fil1" d="M164 132l0 8c0,2 2,3 5,3l8 0c2,0 4,-1 4,-3l0 -10c0,-2 -1,-3 -4,-3l-3 0c-6,0 -8,-2 -8,-7l6 0c0,3 0,4 2,4l3 0c7,0 10,2 10,6l0 10c0,4 -4,6 -10,6l-8 0c-7,0 -11,-2 -11,-6l0 -8 6 0z"/>
   <path class="fil1" d="M189 127c0,-4 4,-6 10,-6l4 0 0 -2 6 0 0 2 4 0c7,0 11,2 11,6l0 13c0,4 -4,6 -11,6l-13 0c-7,0 -11,-2 -11,-6l0 -13zm14 -3l0 0 -3 0c-3,0 -5,1 -5,3l0 13c0,2 2,3 5,3l13 0c3,0 5,-1 5,-3l0 -13c0,-2 -2,-3 -5,-3l-4 0 0 9 -6 0 0 -9z"/>
   <path class="fil1" d="M226 146l-1 -20c0,-4 4,-6 10,-6l8 0c7,0 10,2 10,6l0 20 -6 0 0 -20c0,-2 -1,-3 -4,-3l-8 0c-2,0 -4,1 -4,3l1 20 -6 0z"/>
   <polygon class="fil1" points="25,108 0,108 0,85 25,85 "/>
   <polygon class="fil1" points="50,108 26,108 26,45 50,45 "/>
   <polygon class="fil1" points="75,108 51,108 51,65 75,65 "/>
   <polygon class="fil1" points="101,108 76,108 76,0 101,0 "/>
   <polygon class="fil1" points="127,108 102,108 102,10 127,10 "/>
   <polygon class="fil0" points="152,108 128,108 128,17 152,17 "/>
   <polygon class="fil0" points="177,108 153,108 153,29 177,29 "/>
   <polygon class="fil0" points="202,108 178,108 178,56 202,56 "/>
   <polygon class="fil0" points="228,108 203,108 203,15 228,15 "/>
   <polygon class="fil0" points="253,108 229,108 229,31 253,31 "/>
   <polygon class="fil2" points="253,109 0,109 0,105 253,105 "/>
   <g>
    <path class="fil0" d="M160 153l1 3c0,1 0,1 0,2l0 0c1,-1 1,-1 1,-2l1 -3 1 0 1 3c0,1 1,1 1,2l0 0c0,-1 0,-1 0,-2l1 -3 2 0 -3 6 -1 0 -1 -3c0,-1 0,-1 0,-2l0 0c-1,1 -1,1 -1,2l-1 3 -1 0 -2 -6 1 0z"/>
    <path class="fil0" d="M170 153l1 3c0,1 1,1 1,2l0 0c0,-1 0,-1 0,-2l2 -3 1 0 1 3c0,1 0,1 0,2l0 0c0,-1 1,-1 1,-2l1 -3 1 0 -2 6 -1 0 -1 -3c-1,-1 -1,-1 -1,-2l0 0c0,1 0,1 -1,2l-1 3 -1 0 -2 -6 1 0z"/>
    <path class="fil0" d="M181 153l1 3c0,1 0,1 0,2l0 0c0,-1 1,-1 1,-2l1 -3 1 0 1 3c0,1 0,1 1,2l0 0c0,-1 0,-1 0,-2l1 -3 1 0 -2 6 -1 0 -1 -3c0,-1 0,-1 -1,-2l0 0c0,1 0,1 0,2l-1 3 -1 0 -2 -6 1 0z"/>
    <path class="fil0" d="M190 159c0,-1 0,-1 1,-1 0,0 0,0 0,1 0,0 0,0 0,0 -1,0 -1,0 -1,0z"/>
    <path class="fil0" d="M199 158c0,2 -1,3 -1,3 -1,1 -2,1 -3,1 -1,0 -1,0 -2,0l0 -1c1,0 1,0 2,0 2,0 3,0 3,-2l0 -1 -1 0c0,1 -1,1 -2,1 -1,0 -3,-1 -3,-3 0,-2 2,-4 4,-4 1,0 1,1 2,2l0 0 0 -1 1 0c0,0 0,1 0,1l0 4zm-1 -3l0 0c0,0 -1,0 -1,0 0,-1 0,-2 -1,-2 -1,0 -2,1 -2,3 0,1 0,2 2,2 0,0 1,0 1,-1 0,0 1,0 1,-1l0 -1z"/>
    <path class="fil0" d="M201 156c0,2 2,2 3,2 1,0 1,0 2,0l0 1c-1,0 -1,0 -2,0 -2,0 -4,-1 -4,-3 0,-2 1,-4 3,-4 3,0 3,2 3,4 0,0 0,0 0,0l-5 0zm4 -1l0 0c0,-1 0,-2 -2,-2 -1,0 -1,1 -2,2l4 0z"/>
    <path class="fil0" d="M214 156c0,2 -2,3 -3,3 -2,0 -4,-1 -4,-3 0,-2 2,-4 4,-4 2,0 3,2 3,4zm-5 0l0 0c0,1 0,3 2,3 1,0 2,-2 2,-3 0,-1 -1,-3 -2,-3 -2,0 -2,2 -2,3z"/>
    <path class="fil0" d="M215 158c1,0 1,1 2,1 1,0 1,-1 1,-2 0,0 0,0 -1,-1 -1,0 -2,-1 -2,-2 0,-1 1,-2 2,-2 1,0 2,1 2,1l0 1c0,0 -1,-1 -2,-1 0,0 -1,1 -1,1 0,1 1,1 2,1 1,1 1,1 1,2 0,2 -1,2 -2,2 -1,0 -2,0 -2,0l0 -1z"/>
    <path class="fil0" d="M222 151l0 2 2 0 0 0 -2 0 0 4c0,1 1,1 1,1 1,0 1,0 1,0l0 1c0,0 0,0 -1,0 -1,0 -1,0 -1,0 -1,0 -1,-1 -1,-2l0 -4 -1 0 0 0 1 0 0 -2 1 0z"/>
    <path class="fil0" d="M230 158c0,0 0,1 0,1l-1 0 0 -1 0 0c0,1 -1,1 -2,1 -1,0 -2,-1 -2,-2 0,-1 1,-2 4,-2l0 0c0,-1 0,-2 -1,-2 -1,0 -2,0 -2,1l0 -1c0,0 1,-1 2,-1 2,0 2,2 2,3l0 3zm-1 -2l0 0c-1,0 -3,0 -3,1 0,1 1,2 1,2 1,0 2,-1 2,-2 0,0 0,0 0,0l0 -1z"/>
    <path class="fil0" d="M234 151l0 2 1 0 0 0 -1 0 0 4c0,1 0,1 1,1 0,0 0,0 0,0l0 1c0,0 0,0 -1,0 0,0 -1,0 -1,0 0,0 0,-1 0,-2l0 -4 -2 0 0 0 2 0 0 -2 1 0z"/>
    <path class="fil0" d="M237 159c0,-1 0,-1 0,-1 1,0 1,0 1,1 0,0 0,0 -1,0 0,0 0,0 0,0z"/>
    <path class="fil0" d="M246 158c0,2 -1,3 -1,3 -1,1 -2,1 -3,1 -1,0 -2,0 -2,0l0 -1c1,0 1,0 2,0 1,0 2,0 2,-2l0 -1 0 0c0,1 -1,1 -2,1 -2,0 -3,-1 -3,-3 0,-2 2,-4 3,-4 1,0 2,1 2,2l0 0 0 -1 2 0c0,0 0,1 0,1l0 4zm-2 -3l0 0c0,0 0,0 0,0 0,-1 -1,-2 -2,-2 -1,0 -2,1 -2,3 0,1 1,2 2,2 1,0 2,0 2,-1 0,0 0,0 0,-1l0 -1z"/>
    <path class="fil0" d="M248 156c0,2 1,2 3,2 0,0 1,0 1,0l1 1c-1,0 -2,0 -3,0 -2,0 -3,-1 -3,-3 0,-2 1,-4 3,-4 2,0 3,2 3,4 0,0 0,0 0,0l-5 0zm4 -1l0 0c0,-1 -1,-2 -2,-2 -1,0 -2,1 -2,2l4 0z"/>
   </g>
  </g>
 </g>
</svg>
